ffmpeg started on 2025-06-05 at 19:42:20
Report written to "D:\Convert\FFMetrics\reports\psnr_report-6.txt"
Log level: 32
Command line:
ffmpeg -hide_banner -nostdin -i "G:\\\xc0\xed\xe8\xec\xe5\\\xce\xed\xe3\xee\xe8\xed\xe3\xe8\\!_36_\xce\xf1\xe5\xed\xfc_2024\\DreamCast\\\xcd\xe0\xef\xe0\xe4\xe5\xed\xe8\xe5 \xee\xe4\xe8\xed\xee\xf7\xea\xe8 \xed\xe0 \xe8\xed\xee\xe9 \xec\xe8\xf0\\[DC] Hitoribocchi no Isekai Kouryaku - 06_Telegram_HEVC.mkv" -i "G:\\\xc0\xed\xe8\xec\xe5\\\xce\xed\xe3\xee\xe8\xed\xe3\xe8\\!_36_\xce\xf1\xe5\xed\xfc_2024\\DreamCast\\\xcd\xe0\xef\xe0\xe4\xe5\xed\xe8\xe5 \xee\xe4\xe8\xed\xee\xf7\xea\xe8 \xed\xe0 \xe8\xed\xee\xe9 \xec\xe8\xf0\\[DC] Hitoribocchi no Isekai Kouryaku - 06_Telegram.mp4" -lavfi "[0:v]settb=AVTB,setpts=PTS-STARTPTS,format=pix_fmts=yuv420p10,fps=24000/1001,scale=1920:1080:flags=bicubic[main];[1:v]settb=AVTB,setpts=PTS-STARTPTS,format=pix_fmts=yuv420p,fps=24000/1001,scale=1920:1080:flags=bicubic[ref];[main][ref]psnr=eof_action=endall:stats_file='D\\:/Convert/FFMetrics/logs/psnr_logfile-6.txt'" -f null -
Input #0, matroska,webm, from 'G:\Аниме\Онгоинги\!_36_Осень_2024\DreamCast\Нападение одиночки на иной мир\[DC] Hitoribocchi no Isekai Kouryaku - 06_Telegram_HEVC.mkv':
  Metadata:
    COMPATIBLE_BRANDS: isomiso2avc1mp41
    MAJOR_BRAND     : isom
    MINOR_VERSION   : 512
    ENCODER         : Lavf61.7.100
  Duration: 00:23:49.08, start: -0.021000, bitrate: 1206 kb/s
  Stream #0:0: Video: hevc (Main 10), yuv420p10le(tv, bt709, progressive), 1920x1080 [SAR 1:1 DAR 16:9], 23.98 fps, 23.98 tbr, 1k tbn (default)
      Metadata:
        HANDLER_NAME    : VideoHandler
        VENDOR_ID       : [0][0][0][0]
        ENCODER         : Lavc61.19.100 libx265
        BPS             : 1007710
        DURATION        : 00:23:48.969708333
        NUMBER_OF_FRAMES: 34261
        NUMBER_OF_BYTES : 179998382
        _STATISTICS_WRITING_APP: mkvpropedit v66.0.0 ('Josie') 64-bit
        _STATISTICS_WRITING_DATE_UTC: 2025-05-31 10:32:40
        _STATISTICS_TAGS: BPS DURATION NUMBER_OF_FRAMES NUMBER_OF_BYTES
  Stream #0:1: Audio: aac (LC), 48000 Hz, stereo, fltp (default)
      Metadata:
        HANDLER_NAME    : SoundHandler
        VENDOR_ID       : [0][0][0][0]
        ENCODER         : Lavc61.19.100 aac
        BPS             : 194432
        DURATION        : 00:23:49.077000000
        NUMBER_OF_FRAMES: 66989
        NUMBER_OF_BYTES : 34732444
        _STATISTICS_WRITING_APP: mkvpropedit v66.0.0 ('Josie') 64-bit
        _STATISTICS_WRITING_DATE_UTC: 2025-05-31 10:32:40
        _STATISTICS_TAGS: BPS DURATION NUMBER_OF_FRAMES NUMBER_OF_BYTES
Input #1, mov,mp4,m4a,3gp,3g2,mj2, from 'G:\Аниме\Онгоинги\!_36_Осень_2024\DreamCast\Нападение одиночки на иной мир\[DC] Hitoribocchi no Isekai Kouryaku - 06_Telegram.mp4':
  Metadata:
    major_brand     : isom
    minor_version   : 512
    compatible_brands: isomiso2avc1mp41
    encoder         : Lavf61.1.100
  Duration: 00:23:49.03, start: 0.000000, bitrate: 3567 kb/s
  Stream #1:0[0x1](und): Video: h264 (High) (avc1 / 0x31637661), yuv420p(tv, bt709, progressive), 1920x1080 [SAR 1:1 DAR 16:9], 3419 kb/s, 23.98 fps, 23.98 tbr, 24k tbn (default)
      Metadata:
        handler_name    : VideoHandler
        vendor_id       : [0][0][0][0]
        encoder         : Lavc61.3.100 h264_qsv
  Stream #1:1[0x2](und): Audio: aac (HE-AACv2) (mp4a / 0x6134706D), 48000 Hz, stereo, fltp, 144 kb/s (default)
      Metadata:
        handler_name    : SoundHandler
        vendor_id       : [0][0][0][0]
Stream mapping:
  Stream #0:0 (hevc) -> settb:default
  Stream #1:0 (h264) -> settb:default
  psnr:default -> Stream #0:0 (wrapped_avframe)
  Stream #0:1 -> #0:1 (aac (native) -> pcm_s16le (native))
Output #0, null, to 'pipe:':
  Metadata:
    COMPATIBLE_BRANDS: isomiso2avc1mp41
    MAJOR_BRAND     : isom
    MINOR_VERSION   : 512
    encoder         : Lavf61.7.100
  Stream #0:0: Video: wrapped_avframe, yuv420p10le(tv, bt709, progressive), 1920x1080 [SAR 1:1 DAR 16:9], q=2-31, 200 kb/s, 23.98 fps, 23.98 tbn
      Metadata:
        encoder         : Lavc61.19.100 wrapped_avframe
  Stream #0:1: Audio: pcm_s16le, 48000 Hz, stereo, s16, 1536 kb/s (default)
      Metadata:
        HANDLER_NAME    : SoundHandler
        VENDOR_ID       : [0][0][0][0]
        _STATISTICS_TAGS: BPS DURATION NUMBER_OF_FRAMES NUMBER_OF_BYTES
        BPS             : 194432
        DURATION        : 00:23:49.077000000
        NUMBER_OF_FRAMES: 66989
        NUMBER_OF_BYTES : 34732444
        _STATISTICS_WRITING_APP: mkvpropedit v66.0.0 ('Josie') 64-bit
        _STATISTICS_WRITING_DATE_UTC: 2025-05-31 10:32:40
        encoder         : Lavc61.19.100 pcm_s16le
frame=  157 fps=0.0 q=-0.0 size=N/A time=00:00:06.54 bitrate=N/A speed=12.7x    frame=  407 fps=391 q=-0.0 size=N/A time=00:00:16.97 bitrate=N/A speed=16.3x    frame=  644 fps=415 q=-0.0 size=N/A time=00:00:26.86 bitrate=N/A speed=17.3x    frame=  871 fps=422 q=-0.0 size=N/A time=00:00:36.32 bitrate=N/A speed=17.6x    frame= 1118 fps=432 q=-0.0 size=N/A time=00:00:46.62 bitrate=N/A speed=  18x    frame= 1373 fps=443 q=-0.0 size=N/A time=00:00:57.26 bitrate=N/A speed=18.5x    frame= 1590 fps=441 q=-0.0 size=N/A time=00:01:06.31 bitrate=N/A speed=18.4x    frame= 1821 fps=441 q=-0.0 size=N/A time=00:01:15.95 bitrate=N/A speed=18.4x    frame= 2022 fps=435 q=-0.0 size=N/A time=00:01:24.33 bitrate=N/A speed=18.1x    frame= 2202 fps=427 q=-0.0 size=N/A time=00:01:31.84 bitrate=N/A speed=17.8x    frame= 2372 fps=418 q=-0.0 size=N/A time=00:01:38.93 bitrate=N/A speed=17.4x    frame= 2534 fps=409 q=-0.0 size=N/A time=00:01:45.68 bitrate=N/A speed=  17x    frame= 2713 fps=403 q=-0.0 size=N/A time=00:01:53.15 bitrate=N/A speed=16.8x    frame= 2895 fps=399 q=-0.0 size=N/A time=00:02:00.74 bitrate=N/A speed=16.7x    frame= 3044 fps=393 q=-0.0 size=N/A time=00:02:06.96 bitrate=N/A speed=16.4x    frame= 3169 fps=383 q=-0.0 size=N/A time=00:02:12.17 bitrate=N/A speed=  16x    frame= 3319 fps=378 q=-0.0 size=N/A time=00:02:18.42 bitrate=N/A speed=15.8x    frame= 3514 fps=378 q=-0.0 size=N/A time=00:02:26.56 bitrate=N/A speed=15.8x    frame= 3707 fps=377 q=-0.0 size=N/A time=00:02:34.61 bitrate=N/A speed=15.7x    frame= 3928 fps=380 q=-0.0 size=N/A time=00:02:43.83 bitrate=N/A speed=15.8x    frame= 4129 fps=381 q=-0.0 size=N/A time=00:02:52.21 bitrate=N/A speed=15.9x    frame= 4346 fps=382 q=-0.0 size=N/A time=00:03:01.26 bitrate=N/A speed=15.9x    frame= 4592 fps=386 q=-0.0 size=N/A time=00:03:11.52 bitrate=N/A speed=16.1x    frame= 4845 fps=391 q=-0.0 size=N/A time=00:03:22.07 bitrate=N/A speed=16.3x    frame= 5099 fps=395 q=-0.0 size=N/A time=00:03:32.67 bitrate=N/A speed=16.5x    frame= 5327 fps=397 q=-0.0 size=N/A time=00:03:42.18 bitrate=N/A speed=16.5x    frame= 5574 fps=400 q=-0.0 size=N/A time=00:03:52.48 bitrate=N/A speed=16.7x    frame= 5794 fps=401 q=-0.0 size=N/A time=00:04:01.65 bitrate=N/A speed=16.7x    frame= 6045 fps=404 q=-0.0 size=N/A time=00:04:12.12 bitrate=N/A speed=16.8x    frame= 6294 fps=406 q=-0.0 size=N/A time=00:04:22.51 bitrate=N/A speed=  17x    frame= 6560 fps=410 q=-0.0 size=N/A time=00:04:33.60 bitrate=N/A speed=17.1x    frame= 6834 fps=413 q=-0.0 size=N/A time=00:04:45.03 bitrate=N/A speed=17.2x    frame= 7044 fps=413 q=-0.0 size=N/A time=00:04:53.79 bitrate=N/A speed=17.2x    frame= 7317 fps=416 q=-0.0 size=N/A time=00:05:05.17 bitrate=N/A speed=17.4x    frame= 7564 fps=418 q=-0.0 size=N/A time=00:05:15.48 bitrate=N/A speed=17.5x    frame= 7815 fps=420 q=-0.0 size=N/A time=00:05:25.95 bitrate=N/A speed=17.5x    frame= 8064 fps=422 q=-0.0 size=N/A time=00:05:36.33 bitrate=N/A speed=17.6x    frame= 8306 fps=423 q=-0.0 size=N/A time=00:05:46.42 bitrate=N/A speed=17.6x    frame= 8505 fps=422 q=-0.0 size=N/A time=00:05:54.72 bitrate=N/A speed=17.6x    frame= 8763 fps=424 q=-0.0 size=N/A time=00:06:05.49 bitrate=N/A speed=17.7x    frame= 8997 fps=425 q=-0.0 size=N/A time=00:06:15.24 bitrate=N/A speed=17.7x    frame= 9177 fps=423 q=-0.0 size=N/A time=00:06:22.75 bitrate=N/A speed=17.6x    frame= 9393 fps=423 q=-0.0 size=N/A time=00:06:31.76 bitrate=N/A speed=17.6x    frame= 9614 fps=423 q=-0.0 size=N/A time=00:06:40.98 bitrate=N/A speed=17.6x    frame= 9830 fps=423 q=-0.0 size=N/A time=00:06:49.99 bitrate=N/A speed=17.6x    frame=10034 fps=422 q=-0.0 size=N/A time=00:06:58.50 bitrate=N/A speed=17.6x    frame=10225 fps=421 q=-0.0 size=N/A time=00:07:06.46 bitrate=N/A speed=17.6x    frame=10456 fps=422 q=-0.0 size=N/A time=00:07:16.10 bitrate=N/A speed=17.6x    frame=10708 fps=423 q=-0.0 size=N/A time=00:07:26.61 bitrate=N/A speed=17.7x    frame=10923 fps=423 q=-0.0 size=N/A time=00:07:35.58 bitrate=N/A speed=17.6x    frame=11160 fps=424 q=-0.0 size=N/A time=00:07:45.46 bitrate=N/A speed=17.7x    frame=11383 fps=424 q=-0.0 size=N/A time=00:07:54.76 bitrate=N/A speed=17.7x    frame=11655 fps=426 q=-0.0 size=N/A time=00:08:06.11 bitrate=N/A speed=17.8x    frame=11886 fps=426 q=-0.0 size=N/A time=00:08:15.74 bitrate=N/A speed=17.8x    frame=12137 fps=427 q=-0.0 size=N/A time=00:08:26.21 bitrate=N/A speed=17.8x    frame=12385 fps=428 q=-0.0 size=N/A time=00:08:36.55 bitrate=N/A speed=17.9x    frame=12631 fps=429 q=-0.0 size=N/A time=00:08:46.81 bitrate=N/A speed=17.9x    frame=12876 fps=430 q=-0.0 size=N/A time=00:08:57.03 bitrate=N/A speed=17.9x    frame=13115 fps=430 q=-0.0 size=N/A time=00:09:07.00 bitrate=N/A speed=  18x    frame=13390 fps=432 q=-0.0 size=N/A time=00:09:18.47 bitrate=N/A speed=  18x    frame=13660 fps=433 q=-0.0 size=N/A time=00:09:29.73 bitrate=N/A speed=18.1x    frame=13890 fps=434 q=-0.0 size=N/A time=00:09:39.32 bitrate=N/A speed=18.1x    frame=14144 fps=435 q=-0.0 size=N/A time=00:09:49.92 bitrate=N/A speed=18.1x    frame=14415 fps=436 q=-0.0 size=N/A time=00:10:01.22 bitrate=N/A speed=18.2x    frame=14684 fps=437 q=-0.0 size=N/A time=00:10:12.44 bitrate=N/A speed=18.2x    frame=14942 fps=438 q=-0.0 size=N/A time=00:10:23.20 bitrate=N/A speed=18.3x    frame=15188 fps=439 q=-0.0 size=N/A time=00:10:33.46 bitrate=N/A speed=18.3x    frame=15443 fps=440 q=-0.0 size=N/A time=00:10:44.10 bitrate=N/A speed=18.3x    frame=15718 fps=441 q=-0.0 size=N/A time=00:10:55.57 bitrate=N/A speed=18.4x    frame=15948 fps=441 q=-0.0 size=N/A time=00:11:05.16 bitrate=N/A speed=18.4x    frame=16184 fps=442 q=-0.0 size=N/A time=00:11:15.00 bitrate=N/A speed=18.4x    frame=16436 fps=442 q=-0.0 size=N/A time=00:11:25.51 bitrate=N/A speed=18.4x    frame=16688 fps=443 q=-0.0 size=N/A time=00:11:36.02 bitrate=N/A speed=18.5x    frame=16929 fps=443 q=-0.0 size=N/A time=00:11:46.08 bitrate=N/A speed=18.5x    frame=17178 fps=444 q=-0.0 size=N/A time=00:11:56.46 bitrate=N/A speed=18.5x    frame=17429 fps=444 q=-0.0 size=N/A time=00:12:06.93 bitrate=N/A speed=18.5x    frame=17679 fps=445 q=-0.0 size=N/A time=00:12:17.36 bitrate=N/A speed=18.5x    frame=17914 fps=445 q=-0.0 size=N/A time=00:12:27.16 bitrate=N/A speed=18.5x    frame=18154 fps=445 q=-0.0 size=N/A time=00:12:37.17 bitrate=N/A speed=18.6x    frame=18397 fps=445 q=-0.0 size=N/A time=00:12:47.30 bitrate=N/A speed=18.6x    frame=18630 fps=446 q=-0.0 size=N/A time=00:12:57.02 bitrate=N/A speed=18.6x    frame=18895 fps=446 q=-0.0 size=N/A time=00:13:08.07 bitrate=N/A speed=18.6x    frame=19132 fps=446 q=-0.0 size=N/A time=00:13:17.96 bitrate=N/A speed=18.6x    frame=19305 fps=445 q=-0.0 size=N/A time=00:13:25.17 bitrate=N/A speed=18.6x    frame=19554 fps=446 q=-0.0 size=N/A time=00:13:35.56 bitrate=N/A speed=18.6x    frame=19811 fps=446 q=-0.0 size=N/A time=00:13:46.28 bitrate=N/A speed=18.6x    frame=20029 fps=446 q=-0.0 size=N/A time=00:13:55.37 bitrate=N/A speed=18.6x    frame=20273 fps=446 q=-0.0 size=N/A time=00:14:05.55 bitrate=N/A speed=18.6x    frame=20535 fps=447 q=-0.0 size=N/A time=00:14:16.48 bitrate=N/A speed=18.6x    frame=20753 fps=447 q=-0.0 size=N/A time=00:14:25.57 bitrate=N/A speed=18.6x    frame=20983 fps=447 q=-0.0 size=N/A time=00:14:35.16 bitrate=N/A speed=18.6x    frame=21206 fps=447 q=-0.0 size=N/A time=00:14:44.46 bitrate=N/A speed=18.6x    frame=21390 fps=446 q=-0.0 size=N/A time=00:14:52.14 bitrate=N/A speed=18.6x    frame=21582 fps=445 q=-0.0 size=N/A time=00:15:00.14 bitrate=N/A speed=18.6x    frame=21815 fps=445 q=-0.0 size=N/A time=00:15:09.86 bitrate=N/A speed=18.6x    frame=22027 fps=444 q=-0.0 size=N/A time=00:15:18.70 bitrate=N/A speed=18.5x    frame=22241 fps=444 q=-0.0 size=N/A time=00:15:27.63 bitrate=N/A speed=18.5x    frame=22486 fps=445 q=-0.0 size=N/A time=00:15:37.85 bitrate=N/A speed=18.5x    frame=22739 fps=445 q=-0.0 size=N/A time=00:15:48.40 bitrate=N/A speed=18.6x    frame=22981 fps=445 q=-0.0 size=N/A time=00:15:58.49 bitrate=N/A speed=18.6x    frame=23241 fps=446 q=-0.0 size=N/A time=00:16:09.34 bitrate=N/A speed=18.6x    frame=23501 fps=446 q=-0.0 size=N/A time=00:16:20.18 bitrate=N/A speed=18.6x    frame=23684 fps=446 q=-0.0 size=N/A time=00:16:27.82 bitrate=N/A speed=18.6x    frame=23916 fps=446 q=-0.0 size=N/A time=00:16:37.49 bitrate=N/A speed=18.6x    frame=24149 fps=446 q=-0.0 size=N/A time=00:16:47.21 bitrate=N/A speed=18.6x    frame=24411 fps=446 q=-0.0 size=N/A time=00:16:58.14 bitrate=N/A speed=18.6x    frame=24644 fps=446 q=-0.0 size=N/A time=00:17:07.86 bitrate=N/A speed=18.6x    frame=24903 fps=447 q=-0.0 size=N/A time=00:17:18.66 bitrate=N/A speed=18.6x    frame=25126 fps=447 q=-0.0 size=N/A time=00:17:27.96 bitrate=N/A speed=18.6x    frame=25356 fps=447 q=-0.0 size=N/A time=00:17:37.55 bitrate=N/A speed=18.6x    frame=25566 fps=446 q=-0.0 size=N/A time=00:17:46.31 bitrate=N/A speed=18.6x    frame=25757 fps=446 q=-0.0 size=N/A time=00:17:54.28 bitrate=N/A speed=18.6x    frame=25994 fps=446 q=-0.0 size=N/A time=00:18:04.16 bitrate=N/A speed=18.6x    frame=26235 fps=446 q=-0.0 size=N/A time=00:18:14.21 bitrate=N/A speed=18.6x    frame=26432 fps=445 q=-0.0 size=N/A time=00:18:22.43 bitrate=N/A speed=18.6x    frame=26673 fps=446 q=-0.0 size=N/A time=00:18:32.48 bitrate=N/A speed=18.6x    frame=26871 fps=445 q=-0.0 size=N/A time=00:18:40.74 bitrate=N/A speed=18.6x    frame=27120 fps=445 q=-0.0 size=N/A time=00:18:51.13 bitrate=N/A speed=18.6x    frame=27336 fps=445 q=-0.0 size=N/A time=00:19:00.13 bitrate=N/A speed=18.6x    frame=27613 fps=446 q=-0.0 size=N/A time=00:19:11.69 bitrate=N/A speed=18.6x    frame=27821 fps=446 q=-0.0 size=N/A time=00:19:20.36 bitrate=N/A speed=18.6x    frame=28036 fps=445 q=-0.0 size=N/A time=00:19:29.33 bitrate=N/A speed=18.6x    frame=28197 fps=444 q=-0.0 size=N/A time=00:19:36.04 bitrate=N/A speed=18.5x    frame=28421 fps=444 q=-0.0 size=N/A time=00:19:45.39 bitrate=N/A speed=18.5x    frame=28673 fps=445 q=-0.0 size=N/A time=00:19:55.90 bitrate=N/A speed=18.5x    frame=28917 fps=445 q=-0.0 size=N/A time=00:20:06.07 bitrate=N/A speed=18.6x    frame=29181 fps=445 q=-0.0 size=N/A time=00:20:17.09 bitrate=N/A speed=18.6x    frame=29413 fps=445 q=-0.0 size=N/A time=00:20:26.76 bitrate=N/A speed=18.6x    frame=29635 fps=445 q=-0.0 size=N/A time=00:20:36.02 bitrate=N/A speed=18.6x    frame=29885 fps=446 q=-0.0 size=N/A time=00:20:46.45 bitrate=N/A speed=18.6x    frame=30137 fps=446 q=-0.0 size=N/A time=00:20:56.96 bitrate=N/A speed=18.6x    frame=30405 fps=446 q=-0.0 size=N/A time=00:21:08.14 bitrate=N/A speed=18.6x    frame=30668 fps=447 q=-0.0 size=N/A time=00:21:19.11 bitrate=N/A speed=18.6x    frame=30938 fps=447 q=-0.0 size=N/A time=00:21:30.37 bitrate=N/A speed=18.7x    frame=31203 fps=448 q=-0.0 size=N/A time=00:21:41.42 bitrate=N/A speed=18.7x    frame=31453 fps=448 q=-0.0 size=N/A time=00:21:51.85 bitrate=N/A speed=18.7x    frame=31699 fps=448 q=-0.0 size=N/A time=00:22:02.11 bitrate=N/A speed=18.7x    frame=31953 fps=449 q=-0.0 size=N/A time=00:22:12.70 bitrate=N/A speed=18.7x    frame=32166 fps=448 q=-0.0 size=N/A time=00:22:21.59 bitrate=N/A speed=18.7x    frame=32362 fps=448 q=-0.0 size=N/A time=00:22:29.76 bitrate=N/A speed=18.7x    frame=32591 fps=448 q=-0.0 size=N/A time=00:22:39.31 bitrate=N/A speed=18.7x    frame=32794 fps=448 q=-0.0 size=N/A time=00:22:47.78 bitrate=N/A speed=18.7x    frame=32991 fps=447 q=-0.0 size=N/A time=00:22:55.99 bitrate=N/A speed=18.6x    frame=33165 fps=446 q=-0.0 size=N/A time=00:23:03.25 bitrate=N/A speed=18.6x    frame=33317 fps=445 q=-0.0 size=N/A time=00:23:09.59 bitrate=N/A speed=18.6x    frame=33532 fps=445 q=-0.0 size=N/A time=00:23:18.56 bitrate=N/A speed=18.6x    frame=33780 fps=445 q=-0.0 size=N/A time=00:23:28.90 bitrate=N/A speed=18.6x    frame=34008 fps=445 q=-0.0 size=N/A time=00:23:38.41 bitrate=N/A speed=18.6x    frame=34259 fps=446 q=-0.0 size=N/A time=00:23:48.88 bitrate=N/A speed=18.6x    [Parsed_psnr_10 @ 00000198e4829980] PSNR y:48.510784 u:50.199663 v:50.086173 average:48.989660 min:39.261784 max:inf
[out#0/null @ 00000198e4794ac0] video:14722KiB audio:267956KiB subtitle:0KiB other streams:0KiB global headers:0KiB muxing overhead: unknown
frame=34261 fps=446 q=-0.0 Lsize=N/A time=00:23:48.96 bitrate=N/A speed=18.6x    
